<svg width="42" height="42" viewBox="0 0 42 42" fill="none" xmlns="http://www.w3.org/2000/svg">
<rect width="42" height="42" fill="#E5E5E5"/>
<rect width="5813" height="920" transform="translate(-563 -468)" fill="#B1B1B1"/>
<path d="M11.2962 33.25L3.5 39.375V7C3.5 6.53587 3.68437 6.09075 4.01256 5.76256C4.34075 5.43437 4.78587 5.25 5.25 5.25H36.75C37.2141 5.25 37.6592 5.43437 37.9874 5.76256C38.3156 6.09075 38.5 6.53587 38.5 7V31.5C38.5 31.9641 38.3156 32.4092 37.9874 32.7374C37.6592 33.0656 37.2141 33.25 36.75 33.25H11.2962ZM19.25 24.5V28H22.75V24.5H19.25ZM14.9923 15.4227L18.4258 16.1105C18.5232 15.623 18.7571 15.1732 19.1001 14.8134C19.4432 14.4537 19.8814 14.1987 20.3637 14.0782C20.8461 13.9578 21.3527 13.9767 21.8246 14.1329C22.2966 14.2892 22.7145 14.5762 23.0297 14.9606C23.3449 15.345 23.5445 15.8111 23.6052 16.3045C23.6659 16.7979 23.5852 17.2984 23.3726 17.7478C23.16 18.1971 22.8241 18.5769 22.4041 18.8428C21.984 19.1088 21.4971 19.25 21 19.25H19.25V22.75H21C22.1598 22.7496 23.2957 22.42 24.2756 21.7993C25.2554 21.1787 26.0389 20.2926 26.5348 19.2442C27.0308 18.1957 27.2189 17.028 27.0772 15.8768C26.9356 14.7257 26.4699 13.6384 25.7346 12.7415C24.9992 11.8446 24.0242 11.1749 22.9232 10.8104C21.8221 10.4458 20.6401 10.4014 19.5148 10.6823C18.3895 10.9632 17.3671 11.5578 16.5664 12.397C15.7658 13.2362 15.2199 14.2855 14.9923 15.4227V15.4227Z" fill="url(#paint0_linear_0_1)"/>
<defs>
<linearGradient id="paint0_linear_0_1" x1="37.2953" y1="47.659" x2="-12.526" y2="29.7529" gradientUnits="userSpaceOnUse">
<stop stop-color="#2867CC"/>
<stop offset="1" stop-color="#00CCF9"/>
</linearGradient>
</defs>
</svg>
