<svg width="120" height="120" viewBox="0 0 120 120" fill="none" xmlns="http://www.w3.org/2000/svg">
<path d="M92.0029 108.459C90.8278 108.459 89.8779 107.507 89.8779 106.334L89.88 85.1372C89.88 80.6853 91.1742 76.4523 93.6222 72.8929C97.8849 66.6943 100.137 59.4247 100.137 51.8724C100.137 31.4236 83.4158 14.7869 62.8607 14.7869C57.3952 14.7869 52.0869 15.9833 47.0825 18.3421C35.3185 23.9839 27.2457 35.4313 26.0259 48.2111C25.8835 49.6964 25.8262 51.1967 25.858 52.6714C25.9388 56.5389 25.1228 60.5276 23.4334 64.5311L18.9135 75.2326C18.8052 75.4897 18.8753 75.7107 18.9284 75.8169C18.9815 75.9274 19.1112 76.1229 19.3874 76.1994L24.7679 77.6933C26.7017 78.2331 28.1127 79.8629 28.3677 81.8519L30.686 96.3062C30.703 96.4167 30.7137 96.5272 30.7137 96.6377C30.7179 98.7563 32.4455 100.482 34.5663 100.482H48.0494C53.2238 100.482 57.4355 96.2722 57.4355 91.0957C57.4355 89.9206 58.3875 88.9707 59.5605 88.9707C60.7335 88.9707 61.6855 89.9206 61.6855 91.0957C61.6855 98.6139 55.5698 104.732 48.0494 104.732H34.5663C30.1697 104.732 26.572 101.202 26.4658 96.8268L24.1623 82.4576C24.1155 82.1027 23.9094 81.8668 23.631 81.7882L18.2505 80.2986C16.8735 79.9139 15.7239 78.9577 15.1034 77.6721C14.4829 76.3886 14.4447 74.8947 15.0014 73.5793L19.5192 62.8799C20.9769 59.4311 21.6803 56.0289 21.6102 52.7649C21.5762 51.1266 21.6378 49.4584 21.795 47.8073C23.1572 33.5528 32.148 20.7943 45.2593 14.5064C50.848 11.8714 56.7662 10.5391 62.8628 10.5391C85.7597 10.5391 104.39 29.0818 104.39 51.8746C104.39 60.2896 101.878 68.3922 97.1263 75.3048C95.167 78.1523 94.1322 81.5502 94.1322 85.1393L94.13 106.336C94.1279 107.509 93.1759 108.459 92.0029 108.459Z" fill="black"/>
<path d="M83.7941 50.8835C83.4094 50.8835 83.0206 50.7794 82.6721 50.5605C81.6754 49.94 81.3737 48.6289 81.9942 47.6344C82.8633 46.2404 83.3244 44.6317 83.3244 42.9827C83.3244 38.1314 79.3783 34.1831 74.5248 34.1831C74.0658 34.1831 73.6153 34.2193 73.1754 34.2851C72.2256 34.4381 71.2991 33.9239 70.9102 33.0484C69.1953 29.1936 65.4383 26.7031 61.3371 26.7031C55.5634 26.7031 50.8651 31.3994 50.8651 37.1751C50.8651 37.6214 50.8927 38.0612 50.9479 38.4947C51.0946 39.6593 50.2701 40.7218 49.1056 40.8684C47.9538 41.0129 46.8807 40.1905 46.7319 39.026C46.6554 38.4204 46.6172 37.802 46.6172 37.1751C46.6172 29.0576 53.2217 22.4531 61.3392 22.4531C66.6071 22.4531 71.4627 25.3452 74.0956 29.9395C74.2379 29.9352 74.3846 29.9331 74.5269 29.9331C81.7222 29.9331 87.5766 35.7875 87.5766 42.9827C87.5766 45.4286 86.8944 47.815 85.6024 49.8848C85.1966 50.5308 84.5038 50.8835 83.7941 50.8835Z" fill="#024ABD"/>
<path d="M47.2606 59.0836C40.0653 59.0836 34.2109 53.2293 34.2109 46.034C34.2109 38.8388 40.0653 32.9844 47.2606 32.9844C47.4837 32.9844 47.7068 32.9886 47.9299 33.0014C49.1029 33.0587 50.0061 34.0575 49.9466 35.2284C49.8892 36.4014 48.8989 37.3194 47.7196 37.245C47.5687 37.2386 47.4157 37.2344 47.2627 37.2344C42.4113 37.2344 38.4631 41.1805 38.4631 46.034C38.4631 50.8875 42.4092 54.8336 47.2627 54.8336C48.4357 54.8336 49.3877 55.7856 49.3877 56.9586C49.3877 58.1316 48.4336 59.0836 47.2606 59.0836Z" fill="#024ABD"/>
<path d="M81.1171 65.0864C74.9546 65.0864 69.9375 60.0714 69.9375 53.9068C69.9375 52.7338 70.8874 51.7818 72.0625 51.7818C73.2376 51.7818 74.1875 52.7338 74.1875 53.9068C74.1875 57.7275 77.2964 60.8364 81.1171 60.8364C84.9379 60.8364 88.0468 57.7275 88.0468 53.9068C88.0468 51.4737 86.7463 49.1914 84.651 47.944C83.6416 47.3448 83.3123 46.04 83.9115 45.0307C84.5108 44.0213 85.8134 43.6919 86.8249 44.2912C90.1994 46.2993 92.2946 49.984 92.2946 53.9047C92.2968 60.0714 87.2796 65.0864 81.1171 65.0864Z" fill="#024ABD"/>
<path d="M69.8586 55.7818C67.2916 55.7818 64.7565 54.6067 63.1181 52.386C62.4211 51.4404 62.623 50.1102 63.5665 49.4153C64.51 48.7183 65.8403 48.9202 66.5373 49.8637C67.8824 51.6869 70.46 52.0779 72.2833 50.7349C73.5604 49.7957 74.1745 48.2423 73.8898 46.6847C73.6773 45.5308 74.4423 44.4237 75.5983 44.2112C76.7543 44.0135 77.8593 44.7658 78.0696 45.9197C78.6498 49.088 77.4003 52.2437 74.8078 54.154C73.3181 55.2505 71.582 55.7818 69.8586 55.7818Z" fill="#024ABD"/>
<path d="M68.1239 46.1164C68.0176 46.1164 67.9093 46.11 67.803 46.093C66.6428 45.9166 65.8459 44.8329 66.0223 43.6726C66.1859 42.5867 65.9181 41.503 65.2679 40.619C64.6155 39.735 63.6593 39.157 62.5734 38.9934C61.0094 38.7532 59.4751 39.4184 58.5763 40.721C57.909 41.6857 56.583 41.9259 55.6204 41.2607C54.6535 40.5935 54.4134 39.2696 55.0806 38.3049C56.9124 35.6529 60.0383 34.3141 63.2109 34.7901C65.4188 35.1237 67.3653 36.2967 68.6913 38.0945C70.0151 39.8922 70.5613 42.098 70.2255 44.3059C70.0619 45.362 69.1566 46.1164 68.1239 46.1164Z" fill="#024ABD"/>
<path d="M67.7085 79.5672C66.5334 79.5672 65.5835 78.6173 65.5835 77.4422V71.3859C65.5835 68.5151 63.2481 66.1818 60.3794 66.1818H55.7745C50.7213 66.1818 46.6094 62.0699 46.6094 57.0167C46.6094 51.9634 50.7213 47.8516 55.7745 47.8516C56.9475 47.8516 57.8995 48.8036 57.8995 49.9766C57.8995 51.1496 56.9475 52.1016 55.7745 52.1016C53.0651 52.1016 50.8594 54.3073 50.8594 57.0167C50.8594 59.7261 53.0651 61.9318 55.7745 61.9318H60.3794C65.592 61.9318 69.8335 66.1733 69.8335 71.3859V77.4422C69.8335 78.6173 68.8836 79.5672 67.7085 79.5672Z" fill="#024ABD"/>
</svg>
