<svg width="120" height="120" viewBox="0 0 120 120" fill="none" xmlns="http://www.w3.org/2000/svg">
<path d="M60.4492 21.0434C61.5603 21.0434 62.4609 20.1427 62.4609 19.0316V11.0117C62.4609 9.90065 61.5603 9 60.4492 9C59.3381 9 58.4375 9.90065 58.4375 11.0117V19.0316C58.4375 20.1427 59.3381 21.0434 60.4492 21.0434Z" fill="#13AAFF"/>
<path d="M39.9974 25.0516C41.4149 27.3156 44.733 25.3848 43.4817 23.0399L39.4717 16.0945C38.0629 13.8355 34.7349 15.7525 35.9874 18.1062C35.9874 18.106 39.9974 25.0516 39.9974 25.0516Z" fill="#13AAFF"/>
<path d="M29.0519 35.9973L22.1065 31.9873C19.757 30.7358 17.8332 34.0592 20.0948 35.4716L27.0402 39.4816C27.9853 40.0322 29.2296 39.7163 29.7882 38.7453C30.3439 37.7831 30.0141 36.5527 29.0519 35.9973Z" fill="#13AAFF"/>
<path d="M25.0434 56.4492C25.0434 55.3381 24.1427 54.4375 23.0316 54.4375H15.0117C13.9006 54.4375 13 55.3381 13 56.4492C13 57.5603 13.9006 58.4609 15.0117 58.4609H23.0316C24.1427 58.4609 25.0434 57.5603 25.0434 56.4492Z" fill="#13AAFF"/>
<path d="M27.0402 73.4146L20.0948 77.4245C17.8302 78.8412 19.7635 82.1611 22.1065 80.9088L29.052 76.8989C30.0142 76.3435 30.3439 75.1131 29.7883 74.1509C29.2326 73.1885 28.0024 72.8587 27.0402 73.4146Z" fill="#13AAFF"/>
<path d="M100.802 77.4269L93.8565 73.4169C91.507 72.1657 89.5832 75.4888 91.8448 76.9012L98.7902 80.9112C99.7353 81.4618 100.98 81.146 101.538 80.1749C102.094 79.2127 101.764 77.9823 100.802 77.4269Z" fill="#13AAFF"/>
<path d="M105.886 54.4375H97.8661C95.2026 54.5351 95.1992 58.362 97.8661 58.4609H105.886C106.997 58.4609 107.898 57.5603 107.898 56.4492C107.898 55.3381 106.997 54.4375 105.886 54.4375Z" fill="#13AAFF"/>
<path d="M92.8588 39.7518C93.2 39.7518 93.546 39.6647 93.8629 39.4818L100.808 35.4719C103.067 34.0633 101.15 30.7347 98.7966 31.9876L91.8511 35.9975C90.0722 37.0378 90.8278 39.7508 92.8588 39.7518Z" fill="#13AAFF"/>
<path d="M78.1545 25.7856C79.0996 26.3362 80.3439 26.0204 80.9025 25.0493L84.9125 18.1039C85.4681 17.1417 85.1384 15.9113 84.1762 15.3559C83.214 14.8002 81.9836 15.1299 81.4282 16.0921L77.4182 23.0376C76.8628 23.9996 77.1925 25.2302 78.1545 25.7856Z" fill="#13AAFF"/>
<path d="M78.3587 33.5675C77.1456 33.5675 76.0052 33.8849 75.0164 34.4409C73.5358 30.6764 68.6196 29.0055 65.1343 31.2351C62.6472 26.2953 55.4384 26.2979 52.9534 31.2351C48.5338 28.43 42.4711 31.8016 42.546 37.0701C42.546 37.0699 42.546 54.0765 42.546 54.0765L39.3389 55.928C36.2407 57.717 34.8584 62.2321 36.2368 66.0222L42.5462 87.2311V109.988C42.5462 111.099 43.4468 111.999 44.5579 111.999H78.9744C80.0855 111.999 80.9861 111.099 80.9861 109.988V95.0508C81.1859 84.0113 85.3475 80.6687 85.1991 68.635C85.1993 68.635 85.1993 40.4081 85.1993 40.4081C85.1991 36.6361 82.1306 33.5675 78.3587 33.5675ZM78.3587 37.5909C79.9119 37.5909 81.1757 38.8546 81.1757 40.4079V56.8792C81.1757 58.4326 79.9119 59.6962 78.3587 59.6962C76.8054 59.6962 75.5417 58.4324 75.5417 56.8792V40.4079C75.5417 38.8546 76.8054 37.5909 78.3587 37.5909ZM68.7014 34.2531C70.2547 34.2531 71.5184 35.5168 71.5184 37.0699V61.0925C71.5184 62.6457 70.2547 63.9095 68.7014 63.9095C67.1482 63.9095 65.8844 62.6457 65.8844 61.0925V37.0701C65.8844 35.5168 67.148 34.2531 68.7014 34.2531ZM56.2268 34.3476C56.365 30.6231 61.7172 30.61 61.8608 34.3476V61.0923C61.8079 64.2352 57.5234 64.9801 56.4008 62.0714C57.0418 61.6176 57.6592 61.1923 58.2069 60.8268C63.3962 57.4652 62.1447 49.6921 56.2266 48.3153V34.3476H56.2268ZM46.5694 37.0701C46.5694 35.5168 47.8332 34.2531 49.3864 34.2531C50.9396 34.2531 52.2034 35.5168 52.2034 37.0701V48.5929C51.5802 48.775 47.2349 51.4005 46.5694 51.7533V37.0701ZM79.0169 82.4518C78.0068 86.0077 76.9625 89.6847 76.9625 95.0508V107.976H46.5694V86.9381C46.5694 86.744 46.5412 86.5507 46.4859 86.3644C46.4457 86.2377 40.0758 64.7908 40.0313 64.6836C39.3061 62.7421 39.935 60.2297 41.3506 59.4123L53.2678 52.5319C54.5521 51.7535 56.3934 52.2458 57.116 53.5631C57.8656 54.8614 57.3747 56.5452 55.9739 57.4799C53.989 58.8044 51.0149 60.9529 49.1754 62.5397C47.2184 64.3503 49.7288 67.2554 51.8035 65.5861C52.1428 65.2934 52.5337 64.9729 52.9572 64.6371C56.2274 69.3345 63.3879 74.0097 65.2803 79.658C66.2463 82.1372 69.8727 80.8702 69.0766 78.3248C67.6073 74.1398 64.1687 70.5534 61.1575 67.5984C62.1921 67.2614 63.1193 66.684 63.8727 65.9327C67.4677 69.6199 73.9248 67.9082 75.2757 62.9843C77.0168 63.9063 79.3889 63.9604 81.1759 63.1123V68.6348C81.1757 74.8512 80.0783 78.7151 79.0169 82.4518Z" fill="black"/>
</svg>
