<svg width="120" height="120" viewBox="0 0 120 120" fill="none" xmlns="http://www.w3.org/2000/svg">
<path d="M90.5991 36.2021C90.2624 36.2021 89.9345 36.1035 89.6556 35.9164C86.6143 33.8832 83.0376 32.8004 79.3793 32.802H40.6285C36.9668 32.7986 33.3883 33.8816 30.3436 35.9164C29.8354 36.2513 29.1893 36.2921 28.6437 36.0236L21.8438 32.6237L23.3636 29.5809L29.3135 32.5524C32.7271 30.4903 36.6403 29.4006 40.6285 29.4024H79.3793C83.3725 29.399 87.2893 30.4887 90.7063 32.5524L96.6476 29.5809L98.1674 32.6237L91.3675 36.0236C91.1296 36.1409 90.8661 36.2021 90.5991 36.2021Z" fill="#024ABD"/>
<path d="M70.1965 102.499H49.7969L56.5968 95.6992H63.3965L70.1965 102.499Z" fill="#A1B9E4"/>
<path d="M63.4015 24.3008H56.6016V95.6996H63.4015V24.3008Z" fill="#024ABD"/>
<path d="M68.4997 22.6016H51.5V26.0014H68.4997V22.6016Z" fill="#A1B9E4"/>
<path d="M45.8475 71.0656L29.402 35.1826L12.9565 71.0656C12.5654 71.9191 11.5558 72.293 10.7023 71.902C9.84888 71.5109 9.47495 70.5013 9.86602 69.6478L27.8569 30.3937C28.2479 29.5403 29.2576 29.1664 30.111 29.5574C30.4816 29.7274 30.7774 30.0232 30.9473 30.3937L48.9382 69.6478C49.3308 70.5013 48.9551 71.5093 48.1019 71.9002C47.2482 72.293 46.2402 71.9191 45.8475 71.0656Z" fill="#F0E4D6"/>
<path d="M107.043 71.0656L90.5973 35.1826L74.1518 71.0656C73.7607 71.9191 72.7511 72.293 71.8976 71.902C71.0442 71.5109 70.6703 70.5013 71.0613 69.6478L89.0522 30.3937C89.4432 29.5403 90.4529 29.1664 91.3063 29.5574C91.6769 29.7274 91.9727 30.0232 92.1427 30.3937L110.134 69.6478C110.526 70.5013 110.15 71.5093 109.297 71.9002C108.444 72.293 107.436 71.9191 107.043 71.0656Z" fill="#F0E4D6"/>
<path d="M110.844 71.1917L94.0973 34.6526L98.1586 32.6313L96.6388 29.5884L92.6795 31.5603L92.144 30.3925C91.7529 29.539 90.7433 29.1651 89.8898 29.5562C89.5193 29.7261 89.2234 30.0219 89.0535 30.3925L88.5758 31.4362C85.6943 30.0982 82.5562 29.403 79.3788 29.4014H65.0992V26.0013H68.4991V22.6014H65.5768L66.799 17.7106C67.7373 13.9553 65.4543 10.1491 61.699 9.21074C57.9437 8.27242 54.1374 10.5555 53.1991 14.3107C52.9204 15.426 52.9204 16.5938 53.1991 17.709L54.4213 22.5998H51.499V25.9997H54.8992V29.3996H40.628C37.4473 29.4014 34.3058 30.0982 31.4227 31.4396L30.945 30.3959C30.5539 29.5424 29.5443 29.1685 28.6908 29.5595C28.3203 29.7295 28.0244 30.0253 27.8545 30.3959L27.319 31.5637L23.3597 29.5832L21.8399 32.6295L25.9012 34.6593L9.15483 71.1917C9.05283 71.4126 8.99844 71.6559 9.00003 71.9005C9.00681 78.4691 14.3311 83.7934 20.8998 83.8002H37.8995C44.4681 83.7934 49.7925 78.4691 49.7992 71.9005C49.7958 71.6557 49.7363 71.416 49.6293 71.1967L32.8372 34.5199C35.2784 33.3877 37.9372 32.8012 40.6282 32.8012H54.8992V94.9963L49.0956 100.8H42.9995C38.3075 100.805 34.5048 104.608 34.4996 109.3C34.4996 110.238 35.2612 111 36.1996 111H83.7987C84.737 111 85.4986 110.238 85.4986 109.3C85.4935 104.608 81.6908 100.805 76.9988 100.8H70.9027L65.0992 94.9963V32.8012H79.379C82.0701 32.8012 84.7289 33.3877 87.1701 34.5199L70.354 71.1917C70.2502 71.4144 70.1976 71.6559 70.1992 71.9005C70.206 78.4691 75.5303 83.7934 82.099 83.8002H99.0987C105.667 83.7934 110.992 78.4691 110.998 71.9005C110.995 71.6557 110.935 71.416 110.829 71.1967L110.844 71.1917ZM37.8995 80.4004H20.9C16.8626 80.3952 13.3826 77.5563 12.57 73.6004H46.2294C45.4168 77.5547 41.9387 80.3954 37.8995 80.4004ZM45.4509 70.2006H13.3486L28.9645 36.1314C29.2502 36.2079 29.5492 36.2079 29.8349 36.1314L45.4509 70.2006ZM57.1552 13.7888C58.4794 12.2179 60.8254 12.0173 62.3962 13.3417C62.5578 13.4778 62.7074 13.6274 62.8433 13.7888C63.53 14.6644 63.7732 15.8083 63.5011 16.886L62.0715 22.6014H57.927L56.4974 16.886C56.2252 15.8067 56.4685 14.6626 57.1552 13.7888ZM58.2993 29.4014V26.0013H61.6992V29.4012L58.2993 29.4014ZM61.6992 32.8012V94.0002H58.2993V32.8012H61.6992ZM76.999 104.2C79.1597 104.203 81.0857 105.563 81.8081 107.6H38.1904C38.9129 105.563 40.839 104.203 42.9995 104.2H76.999ZM66.0953 100.8H53.9031L57.303 97.4003H62.6953L66.0953 100.8ZM90.1602 36.1365C90.4407 36.2352 90.7485 36.2232 91.0204 36.1009L106.65 70.2006H74.5476L90.1602 36.1365ZM99.0985 80.4004H82.0988C78.0614 80.3952 74.5815 77.5563 73.7688 73.6004H107.428C106.616 77.5547 103.138 80.3954 99.0985 80.4004Z" fill="black"/>
</svg>
