<svg width="42" height="42" viewBox="0 0 42 42" fill="none" xmlns="http://www.w3.org/2000/svg">
<rect width="42" height="42" fill="#E5E5E5"/>
<rect width="5813" height="920" transform="translate(-439 -468)" fill="#B1B1B1"/>
<path d="M9.32834 5.72329C10.4204 5.3337 11.6007 5.26209 12.7318 5.5168C13.863 5.7715 14.8987 6.34206 15.7184 7.16213C16.5381 7.9822 17.1082 9.0181 17.3624 10.1494C17.6166 11.2807 17.5444 12.4609 17.1543 13.5528L36.1331 32.5315L32.4196 36.2433L13.4408 17.2663C12.3488 17.6559 11.1685 17.7275 10.0373 17.4728C8.90616 17.2181 7.87052 16.6475 7.05082 15.8275C6.23111 15.0074 5.66102 13.9715 5.40682 12.8402C5.15262 11.7089 5.22475 10.5287 5.61484 9.43679L9.52784 13.3515C9.76999 13.6023 10.0596 13.8022 10.3799 13.9398C10.7002 14.0774 11.0446 14.1498 11.3932 14.1528C11.7417 14.1559 12.0874 14.0894 12.41 13.9575C12.7326 13.8255 13.0257 13.6305 13.2721 13.3841C13.5186 13.1376 13.7135 12.8445 13.8455 12.5219C13.9775 12.1993 14.0439 11.8537 14.0409 11.5051C14.0378 11.1566 13.9654 10.8121 13.8279 10.4919C13.6903 10.1716 13.4903 9.88194 13.2396 9.63979L9.32659 5.72154L9.32834 5.72329ZM27.4706 9.02029L33.0391 5.92629L35.5136 8.40079L32.4196 13.9693L29.3256 14.5888L25.6156 18.3005L23.1393 15.826L26.8511 12.1143L27.4706 9.02029V9.02029ZM15.0963 22.6318L18.8081 26.3453L10.1456 35.0078C9.6679 35.481 9.02684 35.7529 8.35461 35.7673C7.68237 35.7818 7.03021 35.5377 6.53263 35.0855C6.03505 34.6332 5.72998 34.0073 5.68034 33.3367C5.6307 32.6662 5.84027 32.0021 6.26584 31.4815L6.43559 31.2943L15.0981 22.6318H15.0963Z" fill="url(#paint0_linear_0_1)"/>
<defs>
<linearGradient id="paint0_linear_0_1" x1="35.0704" y1="43.7386" x2="-9.12945" y2="28.2505" gradientUnits="userSpaceOnUse">
<stop stop-color="#2867CC"/>
<stop offset="1" stop-color="#00CCF9"/>
</linearGradient>
</defs>
</svg>
