<svg width="42" height="42" viewBox="0 0 42 42" fill="none" xmlns="http://www.w3.org/2000/svg">
<rect width="42" height="42" fill="#E5E5E5"/>
<rect width="5813" height="920" transform="translate(-129 -468)" fill="#B1B1B1"/>
<path d="M6.99947 11.224L1.32422 5.55047L3.80047 3.07422L9.47397 8.74947H36.1475C36.4202 8.74945 36.6892 8.81319 36.933 8.93561C37.1767 9.05803 37.3885 9.23573 37.5514 9.45454C37.7142 9.67334 37.8237 9.92719 37.871 10.1958C37.9184 10.4645 37.9023 10.7404 37.824 11.0017L33.624 25.0017C33.5159 25.3624 33.2944 25.6785 32.9924 25.9033C32.6904 26.1281 32.324 26.2495 31.9475 26.2495H10.4995V29.7495H29.7495V33.2495H8.74947C8.28534 33.2495 7.84022 33.0651 7.51203 32.7369C7.18384 32.4087 6.99947 31.9636 6.99947 31.4995V11.224ZM9.62447 40.2495C8.92828 40.2495 8.2606 39.9729 7.76831 39.4806C7.27603 38.9883 6.99947 38.3207 6.99947 37.6245C6.99947 36.9283 7.27603 36.2606 7.76831 35.7683C8.2606 35.276 8.92828 34.9995 9.62447 34.9995C10.3207 34.9995 10.9883 35.276 11.4806 35.7683C11.9729 36.2606 12.2495 36.9283 12.2495 37.6245C12.2495 38.3207 11.9729 38.9883 11.4806 39.4806C10.9883 39.9729 10.3207 40.2495 9.62447 40.2495ZM30.6245 40.2495C29.9283 40.2495 29.2606 39.9729 28.7683 39.4806C28.276 38.9883 27.9995 38.3207 27.9995 37.6245C27.9995 36.9283 28.276 36.2606 28.7683 35.7683C29.2606 35.276 29.9283 34.9995 30.6245 34.9995C31.3207 34.9995 31.9883 35.276 32.4806 35.7683C32.9729 36.2606 33.2495 36.9283 33.2495 37.6245C33.2495 38.3207 32.9729 38.9883 32.4806 39.4806C31.9883 39.9729 31.3207 40.2495 30.6245 40.2495Z" fill="white"/>
</svg>
