<svg width="42" height="42" viewBox="0 0 42 42" fill="none" xmlns="http://www.w3.org/2000/svg">
<rect width="42" height="42" fill="#E5E5E5"/>
<rect width="5813" height="920" transform="translate(-253 -468)" fill="#B1B1B1"/>
<path d="M10.5 7V14H31.5V7H35.0122C35.9712 7 36.75 7.77875 36.75 8.73775V36.7622C36.7495 37.223 36.5663 37.6647 36.2405 37.9905C35.9147 38.3163 35.473 38.4995 35.0122 38.5H6.98775C6.52701 38.4995 6.08528 38.3163 5.75949 37.9905C5.4337 37.6647 5.25046 37.223 5.25 36.7622V8.73775C5.25 7.77875 6.02875 7 6.98775 7H10.5ZM14 3.5H28V10.5H14V3.5Z" fill="white"/>
</svg>
